<svg width="78" height="72" viewBox="0 0 78 72" fill="none" xmlns="http://www.w3.org/2000/svg">
<path d="M30.9934 64.9389H47.4918V41.1709H30.9934V64.9389ZM44.5015 62.0549H33.9837V44.0549H44.3984V62.0549H44.5015Z" fill="#81B3D2"/>
<path d="M75.4361 39.1823L77.6015 37.0939L67.3931 27.2486V0.39779H53.1632V13.5249L39.0364 0L0.574463 37.1934L2.73988 39.2818L10.7829 31.5249V69.116H6.76137V72H72.652V69.116H67.3931V31.4254L75.4361 39.1823ZM56.1535 3.38122H64.2996V24.3646L56.1535 16.5083V3.38122ZM64.4028 69.0166H13.8763V28.5414L39.0364 4.1768L64.2996 28.5414V69.0166H64.4028Z" fill="#81B3D2"/>
<path d="M31.3029 27.0491C31.3029 31.3253 34.9119 34.806 39.2427 34.806C43.6767 34.806 47.2857 31.3253 47.2857 27.0491C47.2857 22.7728 43.6767 19.3916 39.2427 19.3916C34.8088 19.3916 31.3029 22.7728 31.3029 27.0491ZM39.2427 22.0767C42.0268 22.0767 44.3985 24.2645 44.3985 27.0491C44.3985 29.7341 42.1299 32.0214 39.2427 32.0214C36.4586 32.0214 34.087 29.8336 34.087 27.0491C34.087 24.364 36.4586 22.0767 39.2427 22.0767Z" fill="#81B3D2"/>
<path d="M21.0944 41.1709H18.001V45.0493H21.0944V41.1709Z" fill="#81B3D2"/>
<path d="M27.1782 41.1709H24.0847V45.0493H27.1782V41.1709Z" fill="#81B3D2"/>
<path d="M21.0944 47.1387H18.001V51.0171H21.0944V47.1387Z" fill="#81B3D2"/>
<path d="M27.1782 47.1387H24.0847V51.0171H27.1782V47.1387Z" fill="#81B3D2"/>
<path d="M53.9881 41.1709H50.8947V45.0493H53.9881V41.1709Z" fill="#81B3D2"/>
<path d="M60.175 41.1709H57.0815V45.0493H60.175V41.1709Z" fill="#81B3D2"/>
<path d="M53.9881 47.1387H50.8947V51.0171H53.9881V47.1387Z" fill="#81B3D2"/>
<path d="M60.175 47.1387H57.0815V51.0171H60.175V47.1387Z" fill="#81B3D2"/>
</svg>
