<svg width="81" height="68" viewBox="0 0 81 68" fill="none" xmlns="http://www.w3.org/2000/svg">
<path d="M75.8312 45.3324H4.66296C2.13628 45.3324 0.135986 47.3034 0.135986 49.57V53.0192C0.135986 55.2858 2.13628 57.1582 4.66296 57.1582H5.71575V58.1437C5.71575 63.5639 10.4533 67.9 16.1383 67.9H64.3559C70.1462 67.9 74.7785 63.4653 74.7785 58.1437V57.1582H75.8312C78.2526 57.1582 80.3582 55.2858 80.3582 52.9206V49.4714C80.3582 47.3034 78.3579 45.3324 75.8312 45.3324ZM71.7254 58.1437C71.7254 61.8886 68.4617 64.9436 64.4612 64.9436H16.033C12.0325 64.9436 8.76882 61.8886 8.76882 58.1437V57.1582H71.7254V58.1437ZM77.1999 52.9206C77.1999 53.6105 76.5682 54.2018 75.8312 54.2018H4.66296C3.92601 54.2018 3.29434 53.6105 3.29434 52.9206V49.4714C3.29434 48.8801 3.92601 48.2889 4.66296 48.2889H75.9365C76.6735 48.2889 77.3051 48.8801 77.3051 49.57V52.9206H77.1999Z" fill="#81B3D2"/>
<path d="M17.1912 37.3496L22.8763 41.2915L28.6666 37.3496L34.4569 41.2915L40.2472 37.3496L45.9323 41.2915L51.7226 37.3496L57.5129 41.2915L63.3032 37.3496L69.0935 41.2915L75.7261 36.6597L73.9363 34.2946L69.0935 37.5467L63.3032 33.6047L57.5129 37.5467L51.7226 33.6047L45.9323 37.5467L40.2472 33.6047L34.4569 37.5467L28.6666 33.6047L22.8763 37.5467L17.1912 33.6047L11.4009 37.5467L6.5581 34.2946L4.66309 36.6597L11.4009 41.2915L17.1912 37.3496Z" fill="#81B3D2"/>
<path d="M74.7783 30.6486C74.7783 30.0573 74.8836 28.0864 74.7783 27.6922C74.0414 12.3186 58.8813 0 40.247 0C21.6127 0 6.3473 12.3186 5.61035 27.6922C5.61035 28.0864 5.61035 30.0573 5.61035 30.6486H74.7783ZM40.247 2.95646C57.0915 2.95646 70.9883 13.9939 71.62 27.6922H8.76871C9.50566 13.9939 23.4024 2.95646 40.247 2.95646Z" fill="#81B3D2"/>
<path d="M40.2472 16.7532C41.41 16.7532 42.3527 15.8708 42.3527 14.7823C42.3527 13.6937 41.41 12.8113 40.2472 12.8113C39.0843 12.8113 38.1416 13.6937 38.1416 14.7823C38.1416 15.8708 39.0843 16.7532 40.2472 16.7532Z" fill="#81B3D2"/>
<path d="M31.8248 11.924C32.9877 11.924 33.9304 11.0416 33.9304 9.95303C33.9304 8.86449 32.9877 7.98206 31.8248 7.98206C30.6619 7.98206 29.7192 8.86449 29.7192 9.95303C29.7192 11.0416 30.6619 11.924 31.8248 11.924Z" fill="#81B3D2"/>
<path d="M48.6693 11.924C49.8322 11.924 50.7749 11.0416 50.7749 9.95303C50.7749 8.86449 49.8322 7.98206 48.6693 7.98206C47.5064 7.98206 46.5637 8.86449 46.5637 9.95303C46.5637 11.0416 47.5064 11.924 48.6693 11.924Z" fill="#81B3D2"/>
</svg>
