<svg xmlns="http://www.w3.org/2000/svg">
  <style> :root svg:not(:target) { display: none } </style>
  <svg viewBox="0 0 23 21" id="like-icon" aria-hidden="true" focusable="false">
    <path d="M12.9636 3.78L12.3364 6.825L11.7091 9.45H14.3227H20.8045V11.55C20.8045 11.55 20.8045 11.55 20.8045 11.655L17.7727 18.9H8.36364V8.4L12.9636 3.78ZM2.09091 10.5V18.9V10.5ZM13.8 0L6.9 6.93C6.48182 7.245 6.27273 7.77 6.27273 8.4V18.9C6.27273 20.055 7.21364 21 8.36364 21H17.7727C18.6091 21 19.3409 20.475 19.6545 19.74L22.7909 12.285C22.8955 12.075 22.8955 11.76 22.8955 11.55V9.45H23C23 8.295 22.0591 7.35 20.9091 7.35H14.3227L15.3682 2.52V2.205C15.3682 1.785 15.1591 1.365 14.95 1.05L13.8 0ZM4.18182 8.4H0V21H4.18182V8.4Z"/>
  </svg>
  <svg viewBox="0 0 48 54" id="play-video-icon" focusable="false">
    <path d="M48 27L0 54L2.42273e-06 0L48 27Z"/>
  </svg>
  <svg viewBox="0 0 24 24" id="vk-icon">
    <path d="M23.45 5.948C23.616 5.402 23.45 5 22.655 5H20.03C19.362 5 19.054 5.347 18.887 5.73C18.887 5.73 17.552 8.926 15.661 11.002C15.049 11.604 14.771 11.795 14.437 11.795C14.27 11.795 14.019 11.604 14.019 11.057V5.948C14.019 5.292 13.835 5 13.279 5H9.151C8.734 5 8.483 5.304 8.483 5.593C8.483 6.214 9.429 6.358 9.526 8.106V11.904C9.526 12.737 9.373 12.888 9.039 12.888C8.149 12.888 5.984 9.677 4.699 6.003C4.45 5.288 4.198 5 3.527 5H0.9C0.15 5 0 5.347 0 5.73C0 6.412 0.89 9.8 4.145 14.281C6.315 17.341 9.37 19 12.153 19C13.822 19 14.028 18.632 14.028 17.997V15.684C14.028 14.947 14.186 14.8 14.715 14.8C15.105 14.8 15.772 14.992 17.33 16.467C19.11 18.216 19.403 19 20.405 19H23.03C23.78 19 24.156 18.632 23.94 17.904C23.702 17.18 22.852 16.129 21.725 14.882C21.113 14.172 20.195 13.407 19.916 13.024C19.527 12.533 19.638 12.314 19.916 11.877C19.916 11.877 23.116 7.451 23.449 5.948H23.45Z" fill="#ffffff"/>
  </svg>
  <svg viewBox="0 0 24 24" id="telegram-icon">
    <path d="M22.4393 4.62225L19.2705 19.566C19.0313 20.6205 18.408 20.883 17.5223 20.3865L12.6938 16.8285L10.3643 19.0695C10.1063 19.3275 9.89102 19.5428 9.39377 19.5428L9.74102 14.6258L18.6893 6.54C19.0785 6.1935 18.6045 6.00075 18.0848 6.348L7.02227 13.314L2.25977 11.823C1.22402 11.4998 1.20527 10.7873 2.47577 10.29L21.1035 3.11325C21.966 2.79 22.7205 3.30525 22.4393 4.623V4.62225Z" fill="#ffffff"/>
  </svg>
  <svg viewBox="0 0 24 24" id="youtube-icon">
    <path d="M19.1813 5H4.81331C3.30618 5 2 6.3 2 7.8V16.1C2 17.7 3.30618 19 4.81331 19H19.1813C20.7889 19 21.9946 17.7 21.9946 16.2V7.8C22.095 6.3 20.7889 5 19.1813 5ZM9.03326 15.4V8.6L15.8656 12L9.03326 15.4Z" fill="#ffffff"/>
  </svg>
  <svg viewBox="0 0 18 19" id="phone-icon">
    <path d="M3.6 8.3C5 11.1 7.4 13.4 10.2 14.9L12.4 12.7C12.7 12.4 13.1 12.3 13.4 12.5C14.5 12.9 15.7 13.1 17 13.1C17.6 13.1 18 13.5 18 14.1V17.5C18 18.1 17.6 18.5 17 18.5C7.6 18.5 0 10.9 0 1.5C0 0.9 0.4 0.5 1 0.5H4.5C5.1 0.5 5.5 0.9 5.5 1.5C5.5 2.7 5.7 3.9 6.1 5.1C6.2 5.4 6.1 5.8 5.9 6.1L3.6 8.3Z" fill="#010101"/>
  </svg>
  <svg viewBox="0 0 18 19" id="mail-icon">
    <path d="M9 11.5C8.7 11.5 8.5 11.4 8 11.2L1 7.5V14.5C1 15 1.5 15.5 2 15.5H16C16.5 15.5 17 15 17 14.5V7.5L10 11.2C9.5 11.4 9.3 11.5 9 11.5ZM16 3.5H2C1.5 3.5 1 4 1 4.5V5.3L9 9.5L17 5.3V4.5C17 4 16.5 3.5 16 3.5Z" fill="#000000"/>
  </svg>
  <svg viewBox="0 0 22 16" id="checkbox-icon">
    <path d="M21.8053 1.30662L20.759 0.22188C20.4736 -0.0739599 19.9029 -0.0739599 19.6176 0.22188L8.29884 11.9569L2.40167 5.84283C2.11633 5.54699 1.54563 5.54699 1.26028 5.84283L0.21401 6.92758C-0.0713367 7.22342 -0.0713367 7.8151 0.21401 8.11094L7.63303 15.8028C7.82326 16 8.01349 16 8.20373 16C8.39396 16 8.58419 15.9014 8.77442 15.8028L21.615 2.48999C22.0906 2.19415 22.0906 1.70108 21.8053 1.30662Z" fill="#333333"/>
  </svg>
</svg>
